<?xml version="1.0" encoding="UTF-8" standalone="no"?>
<svg
   xmlns:dc="http://purl.org/dc/elements/1.1/"
   xmlns:cc="http://creativecommons.org/ns#"
   xmlns:rdf="http://www.w3.org/1999/02/22-rdf-syntax-ns#"
   xmlns:svg="http://www.w3.org/2000/svg"
   xmlns="http://www.w3.org/2000/svg"
   viewBox="0 0 1333.3333 1333.3333"
   height="1333.3333"
   width="1333.3333"
   xml:space="preserve"
   id="svg2"
   version="1.1"><metadata
     id="metadata8"><rdf:RDF><cc:Work
         rdf:about=""><dc:format>image/svg+xml</dc:format><dc:type
           rdf:resource="http://purl.org/dc/dcmitype/StillImage" /></cc:Work></rdf:RDF></metadata><defs
     id="defs6" /><g
     transform="matrix(1.3333333,0,0,-1.3333333,0,1333.3333)"
     id="g10"><g
       transform="scale(0.1)"
       id="g12"><path
         id="path14"
         style="fill:#100f0d;fill-opacity:1;fill-rule:nonzero;stroke:none"
         d="M 1320.13,2333.62 H 8679.4 V 7666.38 H 1320.13 Z M 8839.39,2013.65 H 1160.14 c -88.35,0 -159.98,71.63 -159.98,159.99 v 5652.72 c 0,88.36 71.63,159.99 159.98,159.99 h 7679.25 c 88.35,0 159.99,-71.63 159.99,-159.99 V 2173.64 c 0,-88.36 -71.64,-159.99 -159.99,-159.99" /><path
         id="path16"
         style="fill:#100f0d;fill-opacity:1;fill-rule:nonzero;stroke:none"
         d="m 1538.23,2333.62 h 1282.38 l 1414.62,1511.02 -502.84,754.85 z M 2889.97,2013.65 H 1160.61 c -64.21,0 -122.26,38.43 -147.33,97.57 -25.077,59.14 -12.26,127.56 32.42,173.73 l 2594.9,2679.74 c 33.59,34.76 81.32,52.11 129.44,48.04 48.2,-4.45 91.79,-30.39 118.58,-70.69 l 683.14,-1025.53 c 41.25,-61.79 34.45,-143.81 -16.33,-198.02 L 3006.76,2064.27 c -30.24,-32.26 -72.5,-50.62 -116.79,-50.62" /><path
         id="path18"
         style="fill:#100f0d;fill-opacity:1;fill-rule:nonzero;stroke:none"
         d="M 3258.92,2333.62 H 8679.87 V 3955.1 L 6499.38,5793.12 Z M 8839.86,2013.65 H 2889.97 c -63.74,0 -121.39,37.81 -146.78,96.32 -25.39,58.51 -13.6,126.47 30,173.03 l 3596.52,3839.63 c 58.04,62.17 154.67,67.88 219.82,12.96 L 8942.97,4151.8 c 36.09,-30.38 56.87,-75.15 56.87,-122.33 V 2173.64 c 0,-88.36 -71.63,-159.99 -159.98,-159.99" /><path
         id="path20"
         style="fill:#100f0d;fill-opacity:1;fill-rule:nonzero;stroke:none"
         d="m 4266.48,6859.66 c -259.12,0 -469.88,-210.76 -469.88,-469.87 0,-259.12 210.76,-469.88 469.88,-469.88 259.11,0 469.87,210.76 469.87,469.88 0,259.11 -210.76,469.87 -469.87,469.87 z m 0,-1259.72 c -435.51,0 -789.85,354.34 -789.85,789.85 0,435.5 354.34,789.84 789.85,789.84 435.5,0 789.84,-354.34 789.84,-789.84 0,-435.51 -354.34,-789.85 -789.84,-789.85" /></g></g></svg>